<svg xmlns="http://www.w3.org/2000/svg" viewBox="0 0 631.733 249.288"><defs><style>.a{fill:#ddd;}.b{fill:#a7b0c1;}.c,.d,.e{fill:none;stroke:#a7b0c1;stroke-miterlimit:10;}.c{stroke-width:3.931px;}.d{stroke-width:2.952px;}.e{stroke-width:3.939px;}</style></defs><path class="a" d="M15.632,189.1a12,12,0,0,1-12-12v-4.723a12,12,0,0,1,12-12H20.7a1.02,1.02,0,0,0,1.021-1.017V64.678A1.02,1.02,0,0,0,20.7,63.661H15.632a12,12,0,0,1-12-12V46.939a12,12,0,0,1,12-12H74.341a12,12,0,0,1,12,12v4.722a12,12,0,0,1-12,12H69.275a1.021,1.021,0,0,0-1.023,1.017v94.68a1.021,1.021,0,0,0,1.023,1.017h5.066a12,12,0,0,1,12,12V177.1a12,12,0,0,1-12,12Z"/><path class="a" d="M56.253,64.678v94.68a13.021,13.021,0,0,0,13.022,13.017h5.066V177.1H15.633v-4.723H20.7a13.019,13.019,0,0,0,13.023-13.017V64.678A13.019,13.019,0,0,0,20.7,51.661H15.633V46.938H74.341v4.723H69.275A13.021,13.021,0,0,0,56.253,64.678Z"/><path class="a" d="M74.421,147.1a12,12,0,0,1-8.485-3.515L7.616,85.27a12,12,0,0,1,0-16.971L65.936,9.98a12,12,0,0,1,16.971,0L141.226,68.3a12,12,0,0,1,0,16.971L82.907,143.59A12,12,0,0,1,74.421,147.1Z"/><rect class="a" x="33.183" y="35.547" width="82.476" height="82.476" transform="translate(-32.498 75.114) rotate(-45)"/><path class="a" d="M74.421,149.885a12,12,0,0,1-8.485-3.515l-61.1-61.1a12,12,0,0,1,0-16.971l61.1-61.1a12,12,0,0,1,16.971,0l61.1,61.1a12,12,0,0,1,0,16.971l-61.1,61.1A12,12,0,0,1,74.421,149.885Zm0-34.531L112.99,76.785,74.421,38.216,35.852,76.785Z"/><path class="a" d="M74.421,137.885l-61.1-61.1,61.1-61.1,61.1,61.1Zm-55.54-61.1,55.54,55.539L129.96,76.785,74.421,21.245Z"/><path class="a" d="M74.421,110.211a33.426,33.426,0,1,1,33.425-33.426A33.464,33.464,0,0,1,74.421,110.211Z"/><circle class="a" cx="74.421" cy="76.785" r="21.425"/><path class="a" d="M74.421,112.176a35.391,35.391,0,1,1,35.391-35.391A35.431,35.431,0,0,1,74.421,112.176Zm0-42.851a7.46,7.46,0,1,0,7.459,7.46A7.468,7.468,0,0,0,74.421,69.325Z"/><path class="a" d="M74.421,100.176A23.391,23.391,0,1,1,97.812,76.785,23.417,23.417,0,0,1,74.421,100.176Zm0-42.851A19.46,19.46,0,1,0,93.88,76.785,19.482,19.482,0,0,0,74.421,57.325Z"/><path class="a" d="M79.246,110.025a28.416,28.416,0,1,1,28.416-28.416A28.448,28.448,0,0,1,79.246,110.025Zm0-28.9a.485.485,0,1,0,.484.484A.5.5,0,0,0,79.246,81.125Z"/><path class="a" d="M79.246,98.025A16.416,16.416,0,1,1,95.662,81.609,16.434,16.434,0,0,1,79.246,98.025Zm0-28.9A12.485,12.485,0,1,0,91.73,81.609,12.5,12.5,0,0,0,79.246,69.125Z"/><path class="a" d="M113.705,189.1a12,12,0,0,1-8.479-3.508l-39.363-39.3a12,12,0,0,1-.064-16.921L81.628,113.33a12.006,12.006,0,0,1,8.492-3.572h.05a12,12,0,0,1,8.471,3.5l47.13,46.967c.146.022.314.047.5.071.259.029,1.176.079,2.489.079l5.911,0a12,12,0,0,1,12,12V177.1a12,12,0,0,1-12,12Z"/><path class="a" d="M149.168,172.373h5.5V177.1H113.705L74.341,137.8,90.17,121.758l47.858,47.691a15.309,15.309,0,0,0,2.672,1.783,14.624,14.624,0,0,0,4.046.967A42.645,42.645,0,0,0,149.168,172.373Z"/><path class="a" d="M208.5,246.51c-3.612,0-6.919-.052-10.11-.159-4.887-.164-9.362-.455-13.68-.89a101.877,101.877,0,0,1-14.037-2.121C157.519,240.125,156,231,155.95,227.22c0-.136-.016-.3-.026-.462a25.352,25.352,0,0,1-.011-3.554l-1.664.082c-2.051.1-4.171.213-6.385.213-1.341,0-2.571-.039-3.76-.121-3.878-.25-11.28-3.266-11.225-12.867,0-.545.02-1.251.036-1.892.008-.389.019-.745.019-.964a12.016,12.016,0,0,0,11.226,11.73l.761-11.976.818-11.971c.8.053,1.666.081,2.645.081,1.639,0,3.356-.075,5.173-.153,1.993-.086,4.054-.174,6.212-.174,4.3,0,10.667.36,16.851,3.414a20.723,20.723,0,0,1,8.1,6.647,15.809,15.809,0,0,1,2.819,7.851,14.209,14.209,0,0,1,.084,2.28v.2c0,.149.006.3.011.452.013.435.029.98.019,1.61,6.1.6,12.828.879,20.589.879,6.412,0,13.008-.186,19.388-.368,0,0,.723-.018.836-.018a12,12,0,0,1,12,12.043l0,.385c.008.583.02,1.478.023,2.228.054,12.848-11.2,13.322-11.679,13.336C222.54,246.309,215.437,246.51,208.5,246.51Z"/><path class="a" d="M144.921,211.406c8.221.561,17.076-1.736,24.975,1.338a12.891,12.891,0,0,1,4.125,2.412,5.669,5.669,0,0,1,1.157,1.437,7.823,7.823,0,0,1,.332.826l.026.121q.184.919.029-1.385.155-2.306-.023-1.38a1.548,1.548,0,0,1-.063.252c-1.082,2.366-3.239,3.663-5.18,5.292a7.008,7.008,0,0,0-2.138,2.472c-.518,1.262-.228,2.97-.212,4.285.036,3.024,3.023,3.985,5.568,4.607a90.7,90.7,0,0,0,12.389,1.839c4.282.431,8.58.691,12.882.835,9.891.333,19.79.059,29.679-.221.067,0-.008-4,0-4-17.228.488-34.641,1.015-51.712-1.823-2.589-.43-8.386-1.013-8.788-4.453l.01.273a21.683,21.683,0,0,0,.056,3.036c.058-.114.078-.261.128-.383a3.521,3.521,0,0,1,.3-.564,7.21,7.21,0,0,1,1.217-1.37c.946-.872,2-1.619,2.994-2.433a9.8,9.8,0,0,0,2.462-2.6c.7-1.254.492-2.82.487-4.2a5.531,5.531,0,0,0-.732-3.481,9.289,9.289,0,0,0-3.586-2.774c-3.582-1.768-7.557-2.17-11.5-2.173-4.967,0-9.921.556-14.887.217.061,0-.121,3.989,0,4Z"/><path class="a" d="M144.928,221.014a12.013,12.013,0,0,1-11.941-13.255l12.37-117.795a12,12,0,0,1,2.6-6.294L165.93,61.46A12,12,0,0,1,186.877,66l7.15,27.653a12,12,0,0,1-.236,6.8L156.3,212.81A12,12,0,0,1,144.928,221.014Z"/><polygon class="a" points="182.409 96.66 144.921 209.012 157.292 91.218 175.26 69.007 182.409 96.66"/><path class="a" d="M175.267,88.855A19.85,19.85,0,1,1,186,85.694,19.775,19.775,0,0,1,175.267,88.855Z"/><circle class="a" cx="175.26" cy="69.007" r="7.847"/><path class="a" d="M175.275,90.327A21.319,21.319,0,1,1,186.8,86.936,21.254,21.254,0,0,1,175.275,90.327Z"/><path class="a" d="M175.275,78.327a9.326,9.326,0,0,1-7.855-4.273h0a9.332,9.332,0,1,1,7.855,4.273ZM169.9,72.455a6.372,6.372,0,1,0-.869-4.8,6.377,6.377,0,0,0,.869,4.8Z"/><path class="a" d="M342,189.107c-32.148,0-53.744-25.922-53.744-50.133,0-12.742,5.911-25.432,16.216-34.814a60.948,60.948,0,0,1,38.82-15.375q1.218-.046,2.391-.046c35.713,0,46.615,29.973,47.39,45.822a12,12,0,0,1-10.285,12.464,12.382,12.382,0,0,1,1.647,1.215l4.24,3.711a12,12,0,0,1,1.42,16.586C389.41,169.377,373.064,189.107,342,189.107Zm-5.915-42.115c2.468,2.57,6.217,4.493,11.2,5.741a18.876,18.876,0,0,0,4.583.542c9.225,0,17.692-5.775,17.777-5.833.163-.116.328-.226.5-.333Z"/><path class="a" d="M344.366,164.374c-27.533-6.9-23.727-29.435-23.727-29.435l60.443.207s-1.745-35.714-37.342-34.37c-25.2.953-43.489,19-43.489,38.2,0,17.87,16.275,38.132,41.743,38.132,25.706,0,38.773-16.124,38.773-16.124l-4.24-3.711S360.741,168.473,344.366,164.374ZM342.935,109.8c16.417-1.108,16.865,17.853,16.865,17.853H321.534S325.24,110.992,342.935,109.8Z"/><path class="a" d="M421.6,189.107a12,12,0,0,1-12-12v-4.122a12,12,0,0,1,12-12h3.784l0-21.475-38.017,45.309a12,12,0,0,1-9.193,4.288h-3.59a12,12,0,0,1-9.191-19.715l62.821-74.846q.336-.4.706-.77a12.028,12.028,0,0,1,8.494-3.523h15.635A16.077,16.077,0,0,1,468.7,102.494a12.016,12.016,0,0,1,.349,2.876v55.615h3.786a12,12,0,0,1,12,12v4.122a12,12,0,0,1-12,12Z"/><path class="a" d="M472.83,172.986v4.12H421.6v-4.12h4.421a11.36,11.36,0,0,0,11.363-11.36l.009-55.094-59.215,70.574h-3.589l62.821-74.845.009-.008h15.634a4.112,4.112,0,0,1,3.992,3.117v56.256a10.831,10.831,0,0,0,.12,1.63,11.362,11.362,0,0,0,11.244,9.73Z"/><path class="a" d="M255.6,189.107a11.979,11.979,0,0,1-4.122-.727,11.979,11.979,0,0,1-4.122.727H196.4a12,12,0,0,1-12-12v-4.1a12,12,0,0,1,12-12h3.7V118.763h-3.7a12,12,0,0,1-12-12v-4.1a12,12,0,0,1,12-12h31.28A16.066,16.066,0,0,1,238.8,95.111a42.641,42.641,0,0,1,10.963-4.156,58,58,0,0,1,12.654-1.391c24.179,0,40.424,14.2,40.424,35.345v36.1h3.7a12,12,0,0,1,12,12v4.1a12,12,0,0,1-12,12Zm-8.244-28.1a12,12,0,0,1,4.122.726,12,12,0,0,1,4.122-.726h3.7v-36.1a6.652,6.652,0,0,0-.236-1.98,5.768,5.768,0,0,0-1.708-.208c-.216,0-.434.008-.656.021-3.345.2-8.706,3.041-13.038,5.931v32.335Z"/><path class="a" d="M306.543,173.008v4.1H255.6v-4.1h4.4a11.3,11.3,0,0,0,11.3-11.3v-36.8c0-10.2-6.5-14.675-15.319-14.146-10.793.644-24.32,11.856-24.32,11.856v39.093a10.7,10.7,0,0,0,.119,1.62,11.3,11.3,0,0,0,11.182,9.676h4.4v4.1H196.4v-4.1h4.4a11.3,11.3,0,0,0,11.3-11.3V118.06a11.3,11.3,0,0,0-11.3-11.3h-4.4v-4.1h31.28a4.093,4.093,0,0,1,3.971,3.1v10.969s8.09-11.233,20.738-14.069c16.444-3.685,38.453,1.424,38.453,22.244v36.8a11.3,11.3,0,0,0,11.3,11.3Z"/><path class="a" d="M477.948,189.107a12,12,0,0,1-12-12v-4.733a12,12,0,0,1,12-12h5.077a1.049,1.049,0,0,0,1.05-1.045V64.452a1.049,1.049,0,0,0-1.05-1.045h-5.077a12,12,0,0,1-12-12V46.675a12,12,0,0,1,12-12h58.831a12,12,0,0,1,12,12v4.732a12,12,0,0,1-12,12H531.7a1.049,1.049,0,0,0-1.049,1.045v94.877a1.049,1.049,0,0,0,1.049,1.045h5.077a12,12,0,0,1,12,12v4.733a12,12,0,0,1-12,12Z"/><path class="a" d="M518.652,64.452V159.33a13.049,13.049,0,0,0,13.05,13.044h5.077v4.732H477.948v-4.732h5.077a13.045,13.045,0,0,0,13.049-13.044V64.452a13.045,13.045,0,0,0-13.049-13.044h-5.077V46.675h58.831v4.733H531.7A13.049,13.049,0,0,0,518.652,64.452Z"/><path class="a" d="M536.779,146.956a11.966,11.966,0,0,1-8.486-3.514L469.852,85a12,12,0,0,1,0-16.971L528.293,9.588a12,12,0,0,1,16.971,0l58.442,58.441a12,12,0,0,1,0,16.971l-58.442,58.442A11.966,11.966,0,0,1,536.779,146.956Z"/><rect class="a" x="495.455" y="35.19" width="82.649" height="82.649" transform="translate(103.115 401.971) rotate(-45)"/><path class="a" d="M536.779,149.741a11.966,11.966,0,0,1-8.486-3.514L467.067,85a12,12,0,0,1,0-16.971L528.293,6.8a12,12,0,0,1,16.971,0l61.227,61.227a12,12,0,0,1,0,16.971l-61.227,61.227A11.966,11.966,0,0,1,536.779,149.741Zm0-34.542,38.684-38.684L536.779,37.83,498.094,76.515Z"/><path class="a" d="M536.779,137.741,475.552,76.515l61.227-61.227,61.226,61.227ZM481.124,76.515l55.655,55.655,55.655-55.655L536.779,20.859Z"/><path class="a" d="M536.779,109.985a33.47,33.47,0,1,1,33.47-33.47A33.508,33.508,0,0,1,536.779,109.985Z"/><circle class="a" cx="536.779" cy="76.515" r="21.47"/><path class="a" d="M536.779,111.955a35.44,35.44,0,1,1,35.44-35.44A35.481,35.481,0,0,1,536.779,111.955Zm0-42.941a7.5,7.5,0,1,0,7.5,7.5A7.509,7.509,0,0,0,536.779,69.014Z"/><path class="a" d="M536.779,99.955a23.44,23.44,0,1,1,23.44-23.44A23.466,23.466,0,0,1,536.779,99.955Zm0-42.941a19.5,19.5,0,1,0,19.5,19.5A19.523,19.523,0,0,0,536.779,57.014Z"/><path class="a" d="M536.779,100.3A23.786,23.786,0,1,1,553.6,93.334,23.634,23.634,0,0,1,536.779,100.3Z"/><circle class="a" cx="536.779" cy="76.515" r="11.786"/><path class="a" d="M536.779,92.442a15.927,15.927,0,1,1,11.261-4.663A15.828,15.828,0,0,1,536.779,92.442Z"/><circle class="a" cx="536.779" cy="76.515" r="3.928"/><path class="a" d="M576.225,189.107a12,12,0,0,1-8.478-3.508L528.3,146.219a12,12,0,0,1-.063-16.921L544.1,113.223a12,12,0,0,1,8.491-3.572h.051a12,12,0,0,1,8.471,3.5l47.234,47.071c.151.023.323.049.516.073.253.029,1.173.079,2.492.079l5.924,0a12,12,0,0,1,12,12v4.735a12,12,0,0,1-12,12Z"/><path class="a" d="M611.762,172.372h5.515v4.734H576.225l-39.446-39.38,15.862-16.075L600.6,169.442a15.342,15.342,0,0,0,2.678,1.786,14.646,14.646,0,0,0,4.054.969A42.65,42.65,0,0,0,611.762,172.372Z"/><path class="a" d="M165.757,188.961c-5.711,0-11.879-4.346-11.97-12.4,0-.364-.007-.855-.007-1.367,0-.585,0-1.2.007-1.663.087-9.259,7.234-12.62,12.016-12.62l30.645.115c5.712,0,11.88,4.346,11.971,12.4,0,.363.007.854.007,1.366,0,.585,0,1.2-.007,1.663-.087,9.26-7.234,12.62-12.016,12.62Z"/><path class="a" d="M165.8,176.961l30.6.115c.025,0,.036-4.049,0-4.05l-30.6-.115c-.025,0-.036,4.05,0,4.05Z"/><path class="b" d="M56.253,64.678v94.68a13.021,13.021,0,0,0,13.022,13.017h5.066V177.1H15.633v-4.723H20.7a13.019,13.019,0,0,0,13.023-13.017V64.678A13.019,13.019,0,0,0,20.7,51.661H15.633V46.938H74.341v4.723H69.275A13.021,13.021,0,0,0,56.253,64.678Z"/><rect class="a" x="33.183" y="35.547" width="82.476" height="82.476" transform="translate(-32.498 75.114) rotate(-45)"/><rect class="c" x="33.183" y="35.547" width="82.476" height="82.476" transform="translate(-32.498 75.114) rotate(-45)"/><circle class="a" cx="74.421" cy="76.785" r="21.425"/><circle class="c" cx="74.421" cy="76.785" r="21.425"/><circle class="c" cx="79.246" cy="81.609" r="14.45"/><path class="b" d="M149.168,172.373h5.5V177.1H113.705L74.341,137.8,90.17,121.758l47.858,47.691a15.309,15.309,0,0,0,2.672,1.783,14.624,14.624,0,0,0,4.046.967A42.645,42.645,0,0,0,149.168,172.373Z"/><path class="b" d="M144.921,211.406c8.221.562,17.076-1.736,24.975,1.338a12.891,12.891,0,0,1,4.125,2.412,5.669,5.669,0,0,1,1.157,1.437,7.754,7.754,0,0,1,.332.827l.026.12q.184.919.029-1.384.155-2.307-.023-1.381a1.548,1.548,0,0,1-.063.252c-1.082,2.366-3.239,3.663-5.18,5.292a7.012,7.012,0,0,0-2.138,2.473c-.518,1.261-.228,2.969-.212,4.284.036,3.024,3.023,3.985,5.568,4.607a90.726,90.726,0,0,0,12.389,1.839c4.282.431,8.581.691,12.882.835,9.891.333,19.79.059,29.679-.221.067,0-.008-4,0-4-17.228.488-34.641,1.015-51.712-1.823-2.589-.43-8.386-1.013-8.788-4.453l.01.273a21.683,21.683,0,0,0,.056,3.036c.058-.114.078-.261.128-.383a3.521,3.521,0,0,1,.3-.564,7.241,7.241,0,0,1,1.217-1.37c.946-.872,2-1.619,2.994-2.433a9.8,9.8,0,0,0,2.462-2.6c.7-1.254.492-2.82.487-4.2a5.534,5.534,0,0,0-.732-3.482,9.289,9.289,0,0,0-3.586-2.774c-3.582-1.768-7.557-2.17-11.5-2.173-4.967,0-9.921.556-14.887.217.062,0-.121,3.989,0,4Z"/><polygon class="b" points="182.409 96.66 144.921 209.012 157.292 91.218 175.26 69.007 182.409 96.66"/><circle class="a" cx="175.26" cy="69.007" r="7.847"/><circle class="d" cx="175.26" cy="69.007" r="7.847"/><path class="b" d="M344.366,164.374c-27.533-6.9-23.727-29.435-23.727-29.435l60.443.207s-1.745-35.714-37.342-34.37c-25.2.953-43.489,19-43.489,38.2,0,17.87,16.275,38.133,41.743,38.133,25.706,0,38.773-16.125,38.773-16.125l-4.24-3.711S360.741,168.473,344.366,164.374Zm-1.43-54.572c16.416-1.108,16.864,17.853,16.864,17.853H321.534S325.24,110.992,342.936,109.8Z"/><path class="b" d="M472.83,172.986v4.121H421.6v-4.121h4.421a11.36,11.36,0,0,0,11.363-11.36l.009-55.094-59.215,70.575h-3.589l62.821-74.846.009-.008h15.634a4.112,4.112,0,0,1,3.992,3.117v56.256a10.7,10.7,0,0,0,.121,1.63,11.361,11.361,0,0,0,11.243,9.73Z"/><path class="b" d="M306.543,173.008v4.1H255.6v-4.1h4.4a11.3,11.3,0,0,0,11.3-11.3v-36.8c0-10.2-6.5-14.675-15.319-14.146-10.793.644-24.32,11.856-24.32,11.856v39.093a10.7,10.7,0,0,0,.119,1.62,11.3,11.3,0,0,0,11.182,9.676h4.4v4.1H196.4v-4.1h4.4a11.3,11.3,0,0,0,11.3-11.3V118.06a11.3,11.3,0,0,0-11.3-11.3h-4.4v-4.1h31.28a4.092,4.092,0,0,1,3.971,3.1v10.969s8.09-11.233,20.738-14.069c16.444-3.685,38.453,1.424,38.453,22.244v36.8a11.3,11.3,0,0,0,11.3,11.3Z"/><path class="b" d="M518.652,64.452V159.33a13.049,13.049,0,0,0,13.05,13.044h5.077v4.733H477.948v-4.733h5.077a13.045,13.045,0,0,0,13.049-13.044V64.452a13.045,13.045,0,0,0-13.049-13.044h-5.077V46.675h58.831v4.733H531.7A13.049,13.049,0,0,0,518.652,64.452Z"/><rect class="a" x="495.455" y="35.19" width="82.649" height="82.649" transform="translate(103.115 401.971) rotate(-45)"/><rect class="e" x="495.455" y="35.19" width="82.649" height="82.649" transform="translate(103.115 401.971) rotate(-45)"/><circle class="a" cx="536.779" cy="76.515" r="21.47"/><circle class="e" cx="536.779" cy="76.515" r="21.47"/><circle class="b" cx="536.779" cy="76.515" r="11.786"/><circle class="a" cx="536.779" cy="76.515" r="3.928"/><path class="b" d="M611.762,172.372h5.515v4.735H576.225l-39.446-39.38,15.862-16.076L600.6,169.442a15.378,15.378,0,0,0,2.678,1.787,14.684,14.684,0,0,0,4.054.968A42.65,42.65,0,0,0,611.762,172.372Z"/><path class="b" d="M165.8,176.961l30.6.115c.025,0,.036-4.049,0-4.05l-30.6-.115c-.025,0-.036,4.05,0,4.05Z"/></svg>