<svg xmlns="http://www.w3.org/2000/svg" viewBox="0 0 618 230.8"><defs><style>.a{fill:#fff;}.b{fill:#a7b0c1;}.c,.d,.e{fill:none;stroke:#a7b0c1;stroke-miterlimit:10;}.c{stroke-width:3.931px;}.d{stroke-width:2.952px;}.e{stroke-width:3.939px;}</style></defs><path class="a" d="M4.766,171.854V159.131h9.067a9.029,9.029,0,0,0,9.021-9.017V55.434a9.029,9.029,0,0,0-9.021-9.017H4.766V33.7H71.475V46.417H62.408a9.03,9.03,0,0,0-9.022,9.017v94.68a9.03,9.03,0,0,0,9.022,9.017h9.067v12.723Z"/><path class="b" d="M49.386,55.434v94.68a13.022,13.022,0,0,0,13.022,13.018h5.067v4.722H8.766v-4.722h5.067a13.019,13.019,0,0,0,13.022-13.018V55.434A13.018,13.018,0,0,0,13.833,42.417H8.766V37.7H67.475v4.722H62.408A13.021,13.021,0,0,0,49.386,55.434Z"/><rect class="a" x="22.316" y="22.303" width="90.477" height="90.477" transform="translate(-27.973 67.549) rotate(-44.999)"/><rect class="a" x="26.316" y="26.303" width="82.476" height="82.476" transform="translate(-27.973 67.551) rotate(-45)"/><path class="a" d="M.8,67.541,67.555.785l66.757,66.756L67.555,134.3Zm66.758,49.882,49.882-49.882L67.555,17.658,17.672,67.541Z"/><path class="b" d="M67.555,128.641l-61.1-61.1,61.1-61.1,61.1,61.1Zm-55.54-61.1,55.54,55.539,55.539-55.539L67.555,12Z"/><path class="a" d="M67.555,92.967A25.426,25.426,0,1,1,92.979,67.541,25.455,25.455,0,0,1,67.555,92.967Z"/><circle class="a" cx="67.555" cy="67.541" r="21.425"/><path class="a" d="M67.555,94.933a27.392,27.392,0,1,1,27.39-27.392A27.423,27.423,0,0,1,67.555,94.933Zm0-42.852a15.46,15.46,0,1,0,15.459,15.46A15.478,15.478,0,0,0,67.555,52.081Z"/><path class="b" d="M67.555,90.933a23.392,23.392,0,1,1,23.39-23.392A23.418,23.418,0,0,1,67.555,90.933Zm0-42.852a19.46,19.46,0,1,0,19.459,19.46A19.482,19.482,0,0,0,67.555,48.081Z"/><path class="a" d="M72.379,92.782A20.416,20.416,0,1,1,92.8,72.366,20.439,20.439,0,0,1,72.379,92.782Zm0-28.9a8.485,8.485,0,1,0,8.484,8.485A8.493,8.493,0,0,0,72.379,63.881Z"/><path class="b" d="M72.379,88.782A16.416,16.416,0,1,1,88.8,72.366,16.435,16.435,0,0,1,72.379,88.782Zm0-28.9A12.485,12.485,0,1,0,84.863,72.366,12.5,12.5,0,0,0,72.379,59.881Z"/><path class="a" d="M105.183,171.854,61.834,128.578,83.28,106.843l50.575,50.4a11.492,11.492,0,0,0,1.8,1.185,12.957,12.957,0,0,0,2.731.558,33.051,33.051,0,0,0,3.507.144l9.911,0v12.725Z"/><path class="b" d="M142.3,163.129h5.5v4.725H106.838l-39.363-39.3L83.3,112.514l47.858,47.691a15.245,15.245,0,0,0,2.672,1.783,14.633,14.633,0,0,0,4.046.967A42.669,42.669,0,0,0,142.3,163.129Z"/><path class="a" d="M201.629,229.266c-3.523,0-6.741-.051-9.842-.154-4.708-.158-9.009-.438-13.148-.855a94.117,94.117,0,0,1-12.938-1.932c-2.113-.517-8.543-2.088-8.619-8.445,0-.261-.02-.542-.038-.832a11.19,11.19,0,0,1,.551-5.021,10.56,10.56,0,0,1,3.267-4.018c.291-.243.586-.48.883-.716l-.166-.065a24.157,24.157,0,0,0-8.981-1.368c-1.832,0-3.673.094-5.623.193s-3.968.2-5.978.2c-1.157,0-2.209-.033-3.215-.1-3.889-.251-3.8-3.911-3.737-6.584.013-.519.026-.983.022-1.195a4,4,0,0,0,3.735,3.784l.253-3.993.272-3.99c.984.067,2.027.1,3.191.1,1.81,0,3.611-.078,5.517-.16s3.881-.167,5.867-.167c3.786,0,8.676.3,13.309,2.587A13.122,13.122,0,0,1,171.3,200.6a8.054,8.054,0,0,1,1.415,4.126,6.806,6.806,0,0,1,.04,1.264v.374c0,.218.008.44.014.666a10.057,10.057,0,0,1-1.013,5.5,10.863,10.863,0,0,1-1.964,2.475l.749.119a186.545,186.545,0,0,0,30.832,2.155c6.525,0,13.18-.189,19.615-.371l10.528-.3-5.9,5.918c0,.352.007.719.008,1.056.015,3.445-1.3,5.229-3.912,5.3C215.2,229.076,208.457,229.266,201.629,229.266Z"/><path class="b" d="M138.055,202.163c8.22.561,17.075-1.737,24.974,1.337a12.906,12.906,0,0,1,4.126,2.412,5.631,5.631,0,0,1,1.156,1.438,7.655,7.655,0,0,1,.332.826l.026.12q.184.919.029-1.384.154-2.307-.023-1.381a1.548,1.548,0,0,1-.063.252c-1.081,2.366-3.239,3.664-5.18,5.292a7,7,0,0,0-2.137,2.473c-.519,1.261-.229,2.969-.213,4.284.036,3.024,3.023,3.985,5.569,4.607a90.534,90.534,0,0,0,12.388,1.839c4.283.431,8.581.691,12.882.835,9.891.333,19.79.059,29.679-.221.067,0-.007-4,0-4-17.228.488-34.641,1.015-51.711-1.823-2.59-.43-8.387-1.013-8.788-4.453l.01.273a21.565,21.565,0,0,0,.055,3.037c.059-.115.078-.262.129-.384a3.559,3.559,0,0,1,.3-.564,7.241,7.241,0,0,1,1.217-1.37c.946-.872,2-1.619,2.994-2.433a9.786,9.786,0,0,0,2.462-2.6c.7-1.254.492-2.82.488-4.2a5.534,5.534,0,0,0-.733-3.482,9.3,9.3,0,0,0-3.586-2.774c-3.582-1.768-7.557-2.17-11.5-2.173-4.966,0-9.92.556-14.886.217.061,0-.121,3.989,0,4Z"/><polygon class="a" points="134.076 199.35 146.57 80.378 170.277 51.073 179.711 87.56 141.849 201.034 134.076 199.35"/><polygon class="b" points="175.542 87.417 138.055 199.768 150.425 81.974 168.393 59.763 175.542 87.417"/><path class="a" d="M168.4,71.611a11.848,11.848,0,1,1,6.406-1.887A11.808,11.808,0,0,1,168.4,71.611Z"/><circle class="a" cx="168.393" cy="59.763" r="7.847"/><path class="a" d="M168.408,73.083a13.32,13.32,0,1,1,7.2-2.118A13.285,13.285,0,0,1,168.408,73.083Zm-.025-15.689a2.348,2.348,0,0,0-1.274.376,2.371,2.371,0,0,0-.71,3.276,2.374,2.374,0,0,0,2,1.086h0a2.35,2.35,0,0,0,1.274-.376,2.369,2.369,0,0,0-1.294-4.362Z"/><path class="b" d="M168.408,69.083a9.325,9.325,0,0,1-7.854-4.273h0a9.33,9.33,0,1,1,7.854,4.273Zm-5.372-5.872a6.371,6.371,0,1,0-.869-4.8,6.379,6.379,0,0,0,.869,4.8Z"/><path class="a" d="M335.128,171.863c-27.362,0-45.743-21.785-45.743-42.133,0-22.279,21.235-41.208,47.337-42.194.71-.027,1.405-.04,2.09-.04,19.393,0,29.122,10.5,33.869,19.306a49,49,0,0,1,5.53,18.9l.206,4.21-60.808-.209c.316,5.719,3.241,17.128,20.862,21.542a26.9,26.9,0,0,0,6.527.782c11.883,0,22.25-7.2,22.354-7.272l2.571-1.809,2.372,2.066,7.138,6.247-2.425,2.992C376.426,154.975,362.426,171.863,335.128,171.863Zm13.237-57.451c-.985-4.162-3.663-9.9-10.937-9.9-.353,0-.718.013-1.09.038a18.827,18.827,0,0,0-15.758,9.863Z"/><path class="b" d="M337.5,155.13c-27.533-6.9-23.727-29.434-23.727-29.434l60.444.206s-1.746-35.714-37.343-34.369c-25.2.952-43.488,19-43.488,38.2,0,17.87,16.275,38.133,41.743,38.133,25.705,0,38.773-16.125,38.773-16.125l-4.241-3.711S353.874,159.229,337.5,155.13Zm-1.43-54.572c16.416-1.108,16.864,17.853,16.864,17.853H314.667S318.373,101.748,336.069,100.558Z"/><path class="a" d="M410.733,171.863V159.742h8.421a7.37,7.37,0,0,0,7.364-7.36l.006-44.1-53.347,63.582H359.142L427.59,90.314l1.294-1.3,1.668-.008h15.635a8.09,8.09,0,0,1,7.875,6.159l.117.472v56.742a6.916,6.916,0,0,0,.074,1.028,7.4,7.4,0,0,0,7.289,6.332h8.422v12.121Z"/><path class="b" d="M465.963,163.742v4.121h-51.23v-4.121h4.421a11.361,11.361,0,0,0,11.364-11.36l.008-55.094-59.215,70.575h-3.589l62.821-74.846.009-.008h15.634a4.114,4.114,0,0,1,3.993,3.117v56.256a10.693,10.693,0,0,0,.12,1.63,11.361,11.361,0,0,0,11.243,9.73Z"/><path class="a" d="M244.729,171.863v-12.1h8.4a7.308,7.308,0,0,0,7.3-7.3v-36.8c0-6.76-3.346-10.188-9.945-10.188q-.559,0-1.134.035c-6.877.411-16.12,6.43-20.56,9.8v37.154a6.811,6.811,0,0,0,.073,1.016,7.336,7.336,0,0,0,7.228,6.281h8.4v12.1H185.536v-12.1h8.4a7.307,7.307,0,0,0,7.3-7.3V108.816a7.307,7.307,0,0,0-7.3-7.3h-8.4v-12.1h35.28a8.071,8.071,0,0,1,7.854,6.141l.117.473v1.611a38.438,38.438,0,0,1,15.863-8.129,50.014,50.014,0,0,1,10.905-1.2c19.7,0,32.424,10.733,32.424,27.345v36.8a7.307,7.307,0,0,0,7.3,7.3h8.4v12.1Z"/><path class="b" d="M299.677,163.764v4.1H248.728v-4.1h4.4a11.3,11.3,0,0,0,11.3-11.3v-36.8c0-10.2-6.5-14.674-15.318-14.146-10.794.644-24.321,11.856-24.321,11.856v39.093a10.7,10.7,0,0,0,.119,1.62,11.3,11.3,0,0,0,11.182,9.676h4.4v4.1H189.536v-4.1h4.4a11.3,11.3,0,0,0,11.3-11.3V108.816a11.3,11.3,0,0,0-11.3-11.3h-4.4v-4.1h31.281a4.091,4.091,0,0,1,3.97,3.1V107.49s8.09-11.233,20.739-14.069c16.444-3.685,38.453,1.424,38.453,22.244v36.8a11.3,11.3,0,0,0,11.3,11.3Z"/><path class="a" d="M467.081,171.863V159.13h9.077a9.058,9.058,0,0,0,9.05-9.045V55.208a9.058,9.058,0,0,0-9.05-9.045h-9.077V33.432h66.831V46.163h-9.077a9.058,9.058,0,0,0-9.049,9.045v94.877a9.057,9.057,0,0,0,9.049,9.045h9.077v12.733Z"/><path class="b" d="M511.786,55.208v94.878a13.048,13.048,0,0,0,13.049,13.044h5.077v4.733H471.081V163.13h5.077a13.046,13.046,0,0,0,13.05-13.044V55.208a13.046,13.046,0,0,0-13.05-13.044h-5.077V37.431h58.831v4.733h-5.077A13.048,13.048,0,0,0,511.786,55.208Z"/><rect class="a" x="484.588" y="21.947" width="90.649" height="90.649" transform="translate(107.639 394.406) rotate(-45)"/><rect class="a" x="488.588" y="25.947" width="82.649" height="82.649" transform="translate(107.64 394.408) rotate(-45)"/><path class="a" d="M463.028,67.271,529.912.387,596.8,67.271l-66.884,66.884Zm66.884,50,50-50-50-50-50,50Z"/><path class="b" d="M529.912,128.5,468.686,67.271,529.912,6.044l61.227,61.227ZM474.257,67.271l55.655,55.655,55.655-55.655L529.912,11.615Z"/><path class="a" d="M529.912,92.741a25.47,25.47,0,1,1,25.471-25.47A25.5,25.5,0,0,1,529.912,92.741Z"/><circle class="a" cx="529.912" cy="67.271" r="21.47"/><path class="a" d="M529.912,94.711a27.44,27.44,0,1,1,27.441-27.44A27.471,27.471,0,0,1,529.912,94.711Zm0-42.941a15.5,15.5,0,1,0,15.5,15.5A15.518,15.518,0,0,0,529.912,51.77Z"/><path class="b" d="M529.912,90.711a23.44,23.44,0,1,1,23.441-23.44A23.466,23.466,0,0,1,529.912,90.711Zm0-42.941a19.5,19.5,0,1,0,19.5,19.5A19.523,19.523,0,0,0,529.912,47.77Z"/><path class="a" d="M529.912,83.057a15.786,15.786,0,1,1,11.162-4.624A15.679,15.679,0,0,1,529.912,83.057Z"/><circle class="b" cx="529.912" cy="67.271" r="11.786"/><path class="a" d="M529.912,75.2a7.928,7.928,0,0,1,0-15.856h0a7.928,7.928,0,1,1,0,15.856Z"/><circle class="a" cx="529.912" cy="67.271" r="3.928"/><path class="a" d="M567.7,171.863,524.271,128.5l21.48-21.768,50.674,50.5a11.479,11.479,0,0,0,1.809,1.19,12.957,12.957,0,0,0,2.741.561,33.1,33.1,0,0,0,3.512.144l9.924,0v12.735Z"/><path class="b" d="M604.9,163.128h5.516v4.735H569.358l-39.446-39.38,15.862-16.076L593.731,160.2a15.378,15.378,0,0,0,2.678,1.787,14.684,14.684,0,0,0,4.054.968A42.658,42.658,0,0,0,604.9,163.128Z"/><path class="a" d="M158.921,171.717c-4.008,0-4.008-4.041-4.008-5.766,0-2.5,0-6.284,4.024-6.284l30.614.116c4.009,0,4.009,4.041,4.009,5.766,0,2.5,0,6.283-4.024,6.283Z"/><path class="b" d="M158.936,167.717l30.6.116c.025,0,.036-4.05,0-4.05l-30.6-.116c-.025,0-.036,4.05,0,4.05Z"/><path class="b" d="M49.386,55.434v94.68a13.022,13.022,0,0,0,13.022,13.018h5.067v4.722H8.766v-4.722h5.067a13.018,13.018,0,0,0,13.022-13.018V55.434A13.018,13.018,0,0,0,13.833,42.417H8.766V37.7H67.475v4.722H62.408A13.021,13.021,0,0,0,49.386,55.434Z"/><rect class="a" x="26.316" y="26.303" width="82.476" height="82.476" transform="translate(-27.973 67.551) rotate(-45)"/><rect class="c" x="26.316" y="26.303" width="82.476" height="82.476" transform="translate(-27.973 67.551) rotate(-45)"/><circle class="a" cx="67.555" cy="67.541" r="21.425"/><circle class="c" cx="67.555" cy="67.541" r="21.425"/><circle class="c" cx="72.379" cy="72.366" r="14.45"/><path class="b" d="M142.3,163.129h5.5v4.725H106.838l-39.363-39.3L83.3,112.514l47.857,47.691a15.245,15.245,0,0,0,2.672,1.783,14.633,14.633,0,0,0,4.046.967A42.371,42.371,0,0,0,142.3,163.129Z"/><path class="b" d="M138.055,202.163c8.22.561,17.075-1.737,24.974,1.337a12.906,12.906,0,0,1,4.126,2.412,5.631,5.631,0,0,1,1.156,1.438,7.455,7.455,0,0,1,.332.826l.026.12q.184.919.029-1.384.154-2.307-.023-1.381a1.548,1.548,0,0,1-.063.252c-1.081,2.366-3.239,3.664-5.18,5.292a7,7,0,0,0-2.137,2.473c-.519,1.261-.229,2.969-.213,4.284.036,3.024,3.023,3.985,5.569,4.607a90.534,90.534,0,0,0,12.388,1.839c4.283.431,8.581.691,12.882.835,9.891.333,19.79.06,29.679-.221.067,0-.007-4,0-4-17.228.488-34.641,1.015-51.711-1.823-2.59-.43-8.387-1.013-8.788-4.453l.01.273a21.565,21.565,0,0,0,.055,3.037c.059-.115.079-.262.129-.384a3.559,3.559,0,0,1,.3-.564,7.241,7.241,0,0,1,1.217-1.37c.946-.872,2-1.619,2.994-2.433a9.786,9.786,0,0,0,2.462-2.6c.7-1.254.492-2.82.488-4.2a5.534,5.534,0,0,0-.733-3.482,9.3,9.3,0,0,0-3.586-2.774c-3.582-1.768-7.557-2.17-11.5-2.173-4.966,0-9.92.556-14.886.217.061,0-.121,3.989,0,4Z"/><polygon class="b" points="175.542 87.417 138.055 199.768 150.425 81.974 168.393 59.763 175.542 87.417"/><circle class="a" cx="168.393" cy="59.763" r="7.847"/><circle class="d" cx="168.393" cy="59.763" r="7.847"/><path class="b" d="M337.5,155.13c-27.533-6.9-23.727-29.434-23.727-29.434l60.444.206s-1.746-35.714-37.343-34.369c-25.2.952-43.488,19-43.488,38.2,0,17.87,16.275,38.133,41.743,38.133,25.705,0,38.773-16.125,38.773-16.125l-4.241-3.711S353.874,159.229,337.5,155.13Zm-1.43-54.572c16.416-1.107,16.864,17.853,16.864,17.853H314.667S318.373,101.748,336.069,100.558Z"/><path class="b" d="M465.963,163.742v4.121h-51.23v-4.121h4.421a11.361,11.361,0,0,0,11.364-11.359l.008-55.1-59.215,70.575h-3.589l62.821-74.846.009-.008h15.635a4.114,4.114,0,0,1,3.992,3.117v56.257a10.689,10.689,0,0,0,.12,1.629,11.361,11.361,0,0,0,11.243,9.73Z"/><path class="b" d="M299.677,163.764v4.1H248.728v-4.1h4.4a11.3,11.3,0,0,0,11.3-11.3v-36.8c0-10.2-6.5-14.674-15.318-14.146-10.794.644-24.321,11.856-24.321,11.856v39.093a10.7,10.7,0,0,0,.119,1.62,11.3,11.3,0,0,0,11.182,9.676h4.4v4.1H189.537v-4.1h4.4a11.3,11.3,0,0,0,11.3-11.3V108.816a11.3,11.3,0,0,0-11.3-11.3h-4.4v-4.1h31.28a4.091,4.091,0,0,1,3.97,3.1V107.49s8.09-11.233,20.739-14.069c16.444-3.685,38.453,1.424,38.453,22.244v36.8a11.3,11.3,0,0,0,11.3,11.3Z"/><path class="b" d="M511.786,55.208v94.878a13.048,13.048,0,0,0,13.049,13.044h5.077v4.733H471.081V163.13h5.077a13.046,13.046,0,0,0,13.05-13.044V55.208a13.046,13.046,0,0,0-13.05-13.044h-5.077V37.431h58.831v4.733h-5.077A13.048,13.048,0,0,0,511.786,55.208Z"/><rect class="a" x="488.588" y="25.947" width="82.649" height="82.649" transform="translate(107.64 394.408) rotate(-45)"/><rect class="e" x="488.588" y="25.947" width="82.649" height="82.649" transform="translate(107.64 394.408) rotate(-45)"/><circle class="a" cx="529.912" cy="67.271" r="21.47"/><circle class="e" cx="529.912" cy="67.271" r="21.47"/><circle class="b" cx="529.912" cy="67.271" r="11.786"/><circle class="a" cx="529.912" cy="67.271" r="3.928"/><path class="b" d="M604.9,163.128h5.516v4.735H569.358l-39.446-39.38,15.862-16.076L593.732,160.2a15.346,15.346,0,0,0,2.677,1.787,14.684,14.684,0,0,0,4.054.968A42.658,42.658,0,0,0,604.9,163.128Z"/><path class="b" d="M158.936,167.718l30.6.115c.024,0,.035-4.05,0-4.05l-30.6-.115c-.024,0-.036,4.049,0,4.05Z"/></svg>