<svg xmlns="http://www.w3.org/2000/svg" xmlns:xlink="http://www.w3.org/1999/xlink" viewBox="0 0 608 220.8"><defs><style>.a,.b,.c{fill:#fff;}.b{filter:url(#d);}.c{filter:url(#h);}.d{mask:url(#a);}.e{fill:#a7b0c1;}.f{mask:url(#c);}.g{mask:url(#e);}.h{mask:url(#g);}.i{filter:url(#f);}.j{filter:url(#b);}</style><filter id="b" x="4.077" y="3.966" width="117.108" height="158.633" filterUnits="userSpaceOnUse" color-interpolation-filters="sRGB"><feColorMatrix values="-1 0 0 0 1 0 -1 0 0 1 0 0 -1 0 1 0 0 0 1 0" result="invert"/><feFlood flood-color="#fff" result="bg"/><feBlend in="invert" in2="bg"/></filter><mask id="a" x="4.077" y="3.966" width="117.108" height="158.633" maskUnits="userSpaceOnUse"><g class="j"><rect class="a" x="21.628" y="21.047" width="82.476" height="82.476" transform="translate(-25.63 62.696) rotate(-45)"/></g></mask><filter id="d" x="133.366" y="46.66" width="38.186" height="147.853" filterUnits="userSpaceOnUse" color-interpolation-filters="sRGB"><feColorMatrix values="-1 0 0 0 1 0 -1 0 0 1 0 0 -1 0 1 0 0 0 1 0" result="invert"/><feFlood flood-color="#fff" result="bg"/><feBlend in="invert" in2="bg"/></filter><mask id="c" x="133.366" y="46.66" width="38.186" height="147.853" maskUnits="userSpaceOnUse"><circle class="b" cx="163.704" cy="54.508" r="7.847"/></mask><filter id="f" x="466.392" y="3.574" width="117.273" height="159.033" filterUnits="userSpaceOnUse" color-interpolation-filters="sRGB"><feColorMatrix values="-1 0 0 0 1 0 -1 0 0 1 0 0 -1 0 1 0 0 0 1 0" result="invert"/><feFlood flood-color="#fff" result="bg"/><feBlend in="invert" in2="bg"/></filter><mask id="e" x="466.392" y="3.574" width="117.273" height="159.033" maskUnits="userSpaceOnUse"><g class="i"><rect class="a" x="483.899" y="20.691" width="82.649" height="82.649" transform="translate(109.983 389.553) rotate(-45)"/></g></mask><filter id="h" x="513.438" y="50.23" width="23.571" height="23.571" filterUnits="userSpaceOnUse" color-interpolation-filters="sRGB"><feColorMatrix values="-1 0 0 0 1 0 -1 0 0 1 0 0 -1 0 1 0 0 0 1 0" result="invert"/><feFlood flood-color="#fff" result="bg"/><feBlend in="invert" in2="bg"/></filter><mask id="g" x="513.438" y="50.23" width="23.571" height="23.571" maskUnits="userSpaceOnUse"><circle class="c" cx="525.224" cy="62.015" r="3.928"/></mask></defs><g class="d"><path class="e" d="M44.7,50.179v94.68A13.022,13.022,0,0,0,57.72,157.876h5.066V162.6H4.077v-4.723H9.144a13.018,13.018,0,0,0,13.022-13.017V50.179A13.018,13.018,0,0,0,9.144,37.162H4.077V32.439H62.786v4.723H57.72A13.022,13.022,0,0,0,44.7,50.179Z"/></g><path class="e" d="M62.866,123.385l-61.1-61.1,61.1-61.1,61.1,61.1Zm-47.54-61.1,47.54,47.539,47.54-47.539-47.54-47.54Z"/><path class="e" d="M62.866,85.676a23.391,23.391,0,1,1,23.391-23.39A23.417,23.417,0,0,1,62.866,85.676Zm0-42.85a19.46,19.46,0,1,0,19.459,19.46A19.482,19.482,0,0,0,62.866,42.826Z"/><path class="e" d="M67.69,83.526A16.416,16.416,0,1,1,84.106,67.11,16.435,16.435,0,0,1,67.69,83.526Zm0-28.9A12.484,12.484,0,1,0,80.174,67.11,12.5,12.5,0,0,0,67.69,54.626Z"/><path class="e" d="M137.613,157.874h5.5V162.6H102.15L62.786,123.3l15.829-16.042,47.857,47.691a15.356,15.356,0,0,0,2.672,1.783,14.636,14.636,0,0,0,4.046.966A42.479,42.479,0,0,0,137.613,157.874Z"/><path class="e" d="M133.366,196.907c8.22.561,17.075-1.737,24.974,1.338a12.877,12.877,0,0,1,4.126,2.412,5.644,5.644,0,0,1,1.156,1.437,7.615,7.615,0,0,1,.332.826l.026.121q.185.918.029-1.385.156-2.307-.023-1.38a1.673,1.673,0,0,1-.062.251c-1.082,2.367-3.239,3.664-5.18,5.292a6.992,6.992,0,0,0-2.138,2.473c-.518,1.261-.228,2.969-.213,4.285.037,3.024,3.023,3.984,5.569,4.606a90.394,90.394,0,0,0,12.389,1.839c4.282.431,8.58.691,12.881.836,9.892.332,19.79.059,29.679-.221.067,0-.007-4,0-4-17.228.489-34.641,1.015-51.711-1.822-2.589-.431-8.386-1.013-8.788-4.454l.01.273a21.558,21.558,0,0,0,.055,3.037c.059-.115.079-.261.129-.383a3.574,3.574,0,0,1,.3-.565,7.266,7.266,0,0,1,1.216-1.37c.946-.871,2-1.618,3-2.432a9.786,9.786,0,0,0,2.461-2.6c.7-1.253.492-2.82.488-4.2a5.53,5.53,0,0,0-.733-3.481,9.289,9.289,0,0,0-3.586-2.774c-3.582-1.769-7.556-2.171-11.5-2.173-4.966,0-9.92.556-14.886.217.061,0-.121,3.989,0,4Z"/><g class="f"><polygon class="e" points="170.854 82.161 133.366 194.513 145.736 76.718 163.704 54.508 170.854 82.161"/></g><path class="e" d="M163.722,63.834a9.445,9.445,0,0,1-1.992-.215,9.256,9.256,0,0,1-5.864-4.065h0a9.311,9.311,0,1,1,7.856,4.28Zm-5.374-5.877a6.37,6.37,0,1,0,1.907-8.806,6.329,6.329,0,0,0-1.907,8.806Z"/><path class="e" d="M332.81,149.875c-27.533-6.9-23.727-29.435-23.727-29.435l60.444.207s-1.745-35.715-37.343-34.37c-25.2.953-43.488,19-43.488,38.2,0,17.871,16.275,38.133,41.743,38.133,25.7,0,38.773-16.124,38.773-16.124l-4.24-3.712S349.186,153.974,332.81,149.875ZM331.38,95.3c16.417-1.108,16.864,17.853,16.864,17.853H309.979S313.684,96.492,331.38,95.3Z"/><path class="e" d="M461.275,158.486v4.121H410.044v-4.121h4.421a11.36,11.36,0,0,0,11.364-11.359l.008-55.094-59.215,70.574h-3.589l62.822-74.845.008-.009H441.5a4.115,4.115,0,0,1,3.992,3.118v56.256a10.808,10.808,0,0,0,.12,1.629,11.361,11.361,0,0,0,11.244,9.73Z"/><path class="e" d="M294.988,158.509v4.1H244.039v-4.1h4.4a11.3,11.3,0,0,0,11.3-11.3v-36.8c0-10.2-6.5-14.674-15.318-14.145-10.794.644-24.321,11.855-24.321,11.855v39.093a10.712,10.712,0,0,0,.12,1.621,11.3,11.3,0,0,0,11.181,9.676h4.4v4.1H184.848v-4.1h4.4a11.3,11.3,0,0,0,11.3-11.3V103.56a11.3,11.3,0,0,0-11.3-11.3h-4.4v-4.1h31.28a4.091,4.091,0,0,1,3.97,3.1v10.968S228.188,91,240.837,88.166c16.444-3.685,38.453,1.424,38.453,22.243v36.8a11.3,11.3,0,0,0,11.3,11.3Z"/><g class="g"><path class="e" d="M507.1,49.953V144.83a13.049,13.049,0,0,0,13.05,13.045h5.077v4.732H466.392v-4.732h5.077a13.045,13.045,0,0,0,13.05-13.045V49.953a13.045,13.045,0,0,0-13.05-13.045h-5.077V32.176h58.832v4.732h-5.077A13.049,13.049,0,0,0,507.1,49.953Z"/></g><path class="e" d="M525.223,123.242,464,62.015,525.223.789,586.45,62.015ZM477.568,62.015l47.655,47.656,47.655-47.656L525.223,14.36Z"/><path class="e" d="M525.223,85.456a23.44,23.44,0,1,1,23.441-23.441A23.466,23.466,0,0,1,525.223,85.456Zm0-42.941a19.5,19.5,0,1,0,19.5,19.5A19.523,19.523,0,0,0,525.223,42.515Z"/><g class="h"><circle class="e" cx="525.224" cy="62.015" r="11.786"/></g><path class="e" d="M600.207,157.872h5.515v4.735H564.669l-39.445-39.38,15.861-16.075,47.958,47.79a15.329,15.329,0,0,0,2.677,1.787,14.645,14.645,0,0,0,4.055.969A42.541,42.541,0,0,0,600.207,157.872Z"/><path class="e" d="M154.247,162.462l30.6.115c.024,0,.036-4.05,0-4.05l-30.6-.115c-.024,0-.036,4.05,0,4.05Z"/></svg>