<svg xmlns="http://www.w3.org/2000/svg" viewBox="0 0 608 220.8"><defs><style>.a{fill:#111923;}.b,.d,.e,.f{fill:#fff;}.b,.c,.d,.e{stroke:#111923;stroke-miterlimit:10;}.b,.c{stroke-width:3.931px;}.c{fill:none;}.d{stroke-width:2.952px;}.e{stroke-width:3.939px;}</style></defs><path class="a" d="M44.386,50.434v94.68a13.022,13.022,0,0,0,13.022,13.018h5.067v4.722H3.766v-4.722H8.833a13.019,13.019,0,0,0,13.022-13.018V50.434A13.018,13.018,0,0,0,8.833,37.417H3.766V32.7H62.475v4.722H57.408A13.021,13.021,0,0,0,44.386,50.434Z"/><rect class="b" x="21.316" y="21.303" width="82.476" height="82.476" transform="translate(-25.901 62.551) rotate(-45)"/><circle class="b" cx="62.555" cy="62.541" r="21.425"/><circle class="c" cx="67.379" cy="67.365" r="14.45"/><path class="a" d="M137.3,158.129h5.5v4.725H101.838l-39.363-39.3L78.3,107.514l47.858,47.691a15.245,15.245,0,0,0,2.672,1.783,14.633,14.633,0,0,0,4.046.967A42.669,42.669,0,0,0,137.3,158.129Z"/><path class="a" d="M133.055,197.163c8.22.561,17.075-1.737,24.974,1.337a12.906,12.906,0,0,1,4.126,2.412,5.631,5.631,0,0,1,1.156,1.438,7.655,7.655,0,0,1,.332.826l.026.12q.184.919.029-1.384.154-2.307-.023-1.381a1.548,1.548,0,0,1-.063.252c-1.081,2.366-3.239,3.664-5.18,5.292a7,7,0,0,0-2.137,2.473c-.519,1.261-.229,2.969-.213,4.284.036,3.024,3.023,3.985,5.569,4.607a90.534,90.534,0,0,0,12.388,1.839c4.283.431,8.581.691,12.882.835,9.891.333,19.79.059,29.679-.221.067,0-.007-4,0-4-17.228.488-34.641,1.015-51.711-1.823-2.59-.43-8.387-1.013-8.788-4.453l.01.273a21.565,21.565,0,0,0,.055,3.037c.059-.115.078-.262.129-.384a3.559,3.559,0,0,1,.3-.564,7.241,7.241,0,0,1,1.217-1.37c.946-.872,2-1.619,2.994-2.433a9.786,9.786,0,0,0,2.462-2.6c.7-1.254.492-2.82.488-4.2a5.534,5.534,0,0,0-.733-3.482,9.3,9.3,0,0,0-3.586-2.774c-3.582-1.768-7.557-2.17-11.5-2.173-4.966,0-9.92.556-14.886.217.061,0-.121,3.989,0,4Z"/><polygon class="a" points="170.542 82.417 133.055 194.768 145.425 76.974 163.393 54.763 170.542 82.417"/><circle class="d" cx="163.393" cy="54.763" r="7.847"/><path class="a" d="M332.5,150.13c-27.533-6.9-23.727-29.434-23.727-29.434l60.444.206s-1.746-35.714-37.343-34.369c-25.2.952-43.488,19-43.488,38.2,0,17.87,16.275,38.133,41.743,38.133,25.705,0,38.773-16.125,38.773-16.125l-4.241-3.711S348.874,154.229,332.5,150.13Zm-1.43-54.572c16.416-1.108,16.864,17.853,16.864,17.853H309.667S313.373,96.748,331.069,95.558Z"/><path class="a" d="M460.963,158.742v4.121h-51.23v-4.121h4.421a11.361,11.361,0,0,0,11.364-11.36l.008-55.094-59.215,70.575h-3.589l62.821-74.846.009-.008h15.634a4.114,4.114,0,0,1,3.993,3.117v56.256a10.693,10.693,0,0,0,.12,1.63,11.361,11.361,0,0,0,11.243,9.73Z"/><path class="a" d="M294.677,158.764v4.1H243.728v-4.1h4.4a11.3,11.3,0,0,0,11.3-11.3v-36.8c0-10.2-6.495-14.674-15.318-14.146-10.794.644-24.321,11.856-24.321,11.856v39.093a10.7,10.7,0,0,0,.119,1.62,11.3,11.3,0,0,0,11.182,9.676h4.4v4.1H184.536v-4.1h4.4a11.3,11.3,0,0,0,11.3-11.3V103.816a11.3,11.3,0,0,0-11.3-11.3h-4.4v-4.1h31.281a4.091,4.091,0,0,1,3.97,3.1V102.49s8.09-11.233,20.739-14.069c16.444-3.685,38.453,1.424,38.453,22.244v36.8a11.3,11.3,0,0,0,11.3,11.3Z"/><path class="a" d="M506.786,50.208v94.878a13.048,13.048,0,0,0,13.049,13.044h5.077v4.733H466.081V158.13h5.077a13.046,13.046,0,0,0,13.05-13.044V50.208a13.046,13.046,0,0,0-13.05-13.044h-5.077V32.431h58.831v4.733h-5.077A13.048,13.048,0,0,0,506.786,50.208Z"/><rect class="e" x="483.588" y="20.947" width="82.649" height="82.649" transform="translate(109.711 389.408) rotate(-45)"/><circle class="e" cx="524.912" cy="62.271" r="21.47"/><circle class="a" cx="524.912" cy="62.271" r="11.786"/><circle class="f" cx="524.912" cy="62.271" r="3.928"/><path class="a" d="M599.9,158.128h5.516v4.735H564.358l-39.446-39.38,15.862-16.076L588.731,155.2a15.378,15.378,0,0,0,2.678,1.787,14.684,14.684,0,0,0,4.054.968A42.658,42.658,0,0,0,599.9,158.128Z"/><path class="a" d="M153.936,162.717l30.6.116c.025,0,.036-4.05,0-4.05l-30.6-.116c-.025,0-.036,4.05,0,4.05Z"/></svg>